<svg width="72" height="72" viewBox="0 0 72 72" fill="none" xmlns="http://www.w3.org/2000/svg">
<path d="M35.9999 15.5095C22.7166 15.5095 11.9094 26.316 11.9094 39.6C11.9094 45.8554 14.3016 51.7863 18.6454 56.2992C18.7814 56.4403 18.9691 56.5214 19.1643 56.5214C19.3601 56.5214 19.5478 56.4403 19.6832 56.2992C23.9967 51.8179 29.7913 49.3509 35.9999 49.3509C42.2085 49.3509 48.0031 51.8179 52.3166 56.2992C52.4527 56.4403 52.6404 56.5214 52.8355 56.5214C53.0306 56.5214 53.2183 56.4403 53.3544 56.2992C57.6982 51.7855 60.0904 45.8554 60.0904 39.6C60.0904 26.3167 49.2832 15.5095 35.9999 15.5095ZM35.9999 16.9495C48.4897 16.9495 58.6504 27.1102 58.6504 39.6C58.6504 45.2354 56.5842 50.5912 52.8186 54.7622C48.2927 50.3385 42.3496 47.9109 35.9999 47.9109C29.6502 47.9109 23.7071 50.3385 19.1811 54.7622C15.4148 50.5912 13.3494 45.2354 13.3494 39.6C13.3494 27.1109 23.5101 16.9495 35.9999 16.9495ZM35.9999 19.1686C24.9414 19.1686 16.0465 28.1762 15.7499 39.6731C15.7477 39.7703 15.7849 39.8634 15.8525 39.9333C15.9202 40.0024 16.0127 40.0416 16.1099 40.0416H30.5155C30.7142 40.0416 30.8755 39.8803 30.8755 39.6816C30.8755 39.4828 30.7142 39.3216 30.5155 39.3216H16.4825C16.9462 28.3941 25.4533 19.8886 35.9999 19.8886C46.5465 19.8886 55.0521 28.3955 55.5172 39.323H39.8755C39.6768 39.323 39.5155 39.4842 39.5155 39.683C39.5155 39.8817 39.6768 40.043 39.8755 40.043H55.8899C55.9871 40.043 56.0796 40.0038 56.1472 39.9347C56.2149 39.8648 56.2521 39.7703 56.2499 39.6731C55.9525 28.1754 47.0577 19.1686 35.9999 19.1686ZM36.2755 20.603C36.0768 20.603 35.9155 20.7642 35.9155 20.963V21.683C35.9155 21.8817 36.0768 22.043 36.2755 22.043C36.4742 22.043 36.6355 21.8817 36.6355 21.683V20.963C36.6355 20.7642 36.4742 20.603 36.2755 20.603ZM32.1904 23.4464C32.0869 23.4438 31.9828 23.4528 31.8782 23.4745C31.4635 23.5617 31.1168 23.8328 30.9008 24.2367C30.6964 24.6205 30.635 25.0802 30.7265 25.5122L33.411 42.9792C33.4182 43.5163 33.7894 44.1154 34.3532 44.5064C34.7758 44.7987 35.2646 44.948 35.765 44.948C36.0552 44.948 36.3496 44.8983 36.6369 44.7961C38.231 44.377 38.5411 42.8648 38.3568 41.9878L33.7583 24.892C33.5819 24.0548 32.9147 23.4647 32.1904 23.4464ZM32.1566 24.1608C32.5577 24.1608 32.9542 24.5352 33.0636 25.0594L37.6621 42.1537C37.7888 42.7557 37.5696 43.8197 36.4443 44.1084C36.4327 44.1113 36.4227 44.1147 36.4119 44.1183C35.6293 44.3998 35.039 44.1137 34.7582 43.9186C34.3276 43.6198 34.1291 43.2182 34.1211 42.9202L31.4282 25.3842C31.3677 25.0977 31.4048 24.8097 31.5308 24.5742C31.646 24.3597 31.8214 24.218 32.0258 24.1748C32.0698 24.1655 32.1127 24.1608 32.1566 24.1608ZM47.1571 26.3517C47.0653 26.3448 46.9701 26.3731 46.8941 26.4375L45.9632 27.2362C45.8127 27.3658 45.7935 27.5934 45.9238 27.7439C45.9951 27.8267 46.0951 27.8691 46.1966 27.8691C46.2794 27.8691 46.3638 27.8416 46.4315 27.7833L47.3638 26.9831C47.5143 26.8535 47.5321 26.6259 47.4018 26.4755C47.3373 26.3999 47.2489 26.3586 47.1571 26.3517ZM24.7021 26.37C24.6099 26.37 24.5177 26.4053 24.4475 26.4755C24.3071 26.6159 24.3071 26.8441 24.4475 26.9845L25.2238 27.7608C25.2944 27.8306 25.3862 27.8662 25.4783 27.8662C25.5705 27.8662 25.663 27.8306 25.7329 27.7608C25.8733 27.6204 25.8733 27.3921 25.7329 27.2517L24.9566 26.4755C24.8864 26.4053 24.7942 26.37 24.7021 26.37ZM18.2755 37.163C18.0768 37.163 17.9155 37.3242 17.9155 37.523C17.9155 37.7217 18.0768 37.883 18.2755 37.883H18.9955C19.1942 37.883 19.3555 37.7217 19.3555 37.523C19.3555 37.3242 19.1942 37.163 18.9955 37.163H18.2755ZM52.8355 37.163C52.6368 37.163 52.4755 37.3242 52.4755 37.523C52.4755 37.7217 52.6368 37.883 52.8355 37.883H53.5555C53.7542 37.883 53.9155 37.7217 53.9155 37.523C53.9155 37.3242 53.7542 37.163 53.5555 37.163H52.8355Z" fill="#068466"/>
</svg>
